<?xml version="1.0" encoding="UTF-8"?>
<svg width="25px" height="25px" viewBox="0 0 25 25" version="1.1" xmlns="http://www.w3.org/2000/svg" xmlns:xlink="http://www.w3.org/1999/xlink">
    <!-- Generator: sketchtool 51.1 (57501) - http://www.bohemiancoding.com/sketch -->
    <title>B70AE11E-D258-4373-B947-7A5856DD37D9</title>
    <desc>Created with sketchtool.</desc>
    <defs></defs>
    <g id="Symbols" stroke="none" stroke-width="1" fill="none" fill-rule="evenodd">
        <g id="tab-home" transform="translate(-175.000000, -9.000000)" fill="#000000">
            <g id="tab">
                <g id="chat" transform="translate(175.000000, 9.000000)">
                    <path d="M21.2963061,3.69663588 C18.9373351,1.33773087 15.8079156,0.0395778364 12.4729551,0.0395778364 C9.13792876,0.0395778364 6.0085752,1.33773087 3.64960422,3.69663588 C-0.909564644,8.25587071 -1.2262533,15.5540237 2.86345646,20.4775726 C2.46226913,21.2848285 1.81860158,22.2242744 0.863456464,22.6939974 C0.404287599,22.9207784 0.145844327,23.4116095 0.224934037,23.9182058 C0.304023747,24.4248021 0.694656992,24.8205805 1.2012533,24.8996702 C1.43858839,24.9367414 1.77638522,24.9736148 2.1878628,24.9736148 C3.29096306,24.9736148 4.91629288,24.7149077 6.57849604,23.5172823 C8.43067282,24.5144459 10.45719,24.9998681 12.46781,24.9998681 C15.6971636,24.9998681 18.8950528,23.7494063 21.3014512,21.3430739 C23.6603562,18.9841029 24.9585092,15.8550132 24.9585092,12.519723 C24.9585092,9.18476253 23.6549472,6.05534301 21.2963061,3.69663588 Z M20.2882586,20.3350923 C16.7262533,23.8970976 11.2116755,24.6040897 6.87407652,22.0555409 C6.58911609,21.8864776 6.23555409,21.939314 6.0085752,22.1662929 C5.98746702,22.1769129 5.96629288,22.1926121 5.95059367,22.2083113 C4.52051451,23.3165567 3.11675462,23.5486807 2.1878628,23.5486807 L2.18271768,23.5486807 C3.25382586,22.7677441 3.92941953,21.6069261 4.32519789,20.7045515 C4.38858839,20.5515172 4.39914248,20.3930739 4.36207124,20.2453826 C4.34637203,20.1029024 4.2883905,19.9604222 4.1878628,19.8441953 C0.325197889,15.4800792 0.525659631,8.83120053 4.65244063,4.70441953 C8.96378628,0.393073879 15.9769789,0.393073879 20.2828496,4.70441953 C24.5996042,9.01569921 24.5996042,16.0237467 20.2882586,20.3350923 Z" id="Fill-1"></path>
                    <path d="M13.3490106,12.519723 C13.3490106,13.003628 12.9568602,13.3957784 12.4729551,13.3957784 C11.9890501,13.3957784 11.5968997,13.003628 11.5968997,12.519723 C11.5968997,12.0360818 11.9890501,11.6439314 12.4729551,11.6439314 C12.9568602,11.6439314 13.3490106,12.0360818 13.3490106,12.519723 Z" id="Fill-3"></path>
                    <path d="M17.8662269,12.519723 C17.8662269,13.003628 17.4737467,13.3957784 16.9901055,13.3957784 C16.5062005,13.3957784 16.1140501,13.003628 16.1140501,12.519723 C16.1140501,12.0360818 16.5062005,11.6439314 16.9901055,11.6439314 C17.4737467,11.6439314 17.8662269,12.0360818 17.8662269,12.519723 Z" id="Fill-4"></path>
                    <path d="M8.83186016,12.519723 C8.83186016,13.003628 8.4396438,13.3957784 7.95573879,13.3957784 C7.47209763,13.3957784 7.07968338,13.003628 7.07968338,12.519723 C7.07968338,12.0360818 7.47209763,11.6439314 7.95573879,11.6439314 C8.4396438,11.6439314 8.83186016,12.0360818 8.83186016,12.519723 Z" id="Fill-5"></path>
                </g>
            </g>
        </g>
    </g>
</svg>