<?xml version="1.0" encoding="UTF-8"?>
<svg width="22px" height="25px" viewBox="0 0 22 25" version="1.1" xmlns="http://www.w3.org/2000/svg" xmlns:xlink="http://www.w3.org/1999/xlink">
    <!-- Generator: sketchtool 51.1 (57501) - http://www.bohemiancoding.com/sketch -->
    <title>FBC8F3FA-3B08-46F2-9051-9E6A1A948871</title>
    <desc>Created with sketchtool.</desc>
    <defs></defs>
    <g id="Symbols" stroke="none" stroke-width="1" fill="none" fill-rule="evenodd">
        <g id="tab-home" transform="translate(-101.000000, -9.000000)" fill="#000000" fill-rule="nonzero">
            <g id="tab">
                <g id="hos" transform="translate(101.000000, 9.000000)">
                    <path d="M18.0724609,3.09697266 C16.0753906,1.09985352 13.4200684,0 10.595752,0 C7.77143555,0 5.11606445,1.09985352 3.11899414,3.09697266 C1.121875,5.09414062 0.0220214844,7.74941406 0.0220214844,10.5736816 C0.0220214844,16.2871582 5.42426758,21.0393555 8.3265625,23.5923828 C8.72988281,23.947168 9.07817383,24.2535645 9.35566406,24.5127441 C9.70332031,24.8375 10.1495605,24.9999023 10.5957031,24.9999023 C11.0419434,24.9999023 11.4880859,24.8375 11.835791,24.5127441 C12.1132812,24.2535156 12.4615723,23.947168 12.8648926,23.5923828 C15.7671875,21.0393066 21.1694336,16.2871582 21.1694336,10.5736816 C21.1693848,7.74941406 20.0695801,5.09414062 18.0724609,3.09697266 Z M11.8976074,22.4928711 C11.4854492,22.8554199 11.129541,23.1685547 10.836084,23.442627 C10.7012695,23.568457 10.4901367,23.5685059 10.3552734,23.442627 C10.0618652,23.168457 9.7059082,22.8553711 9.29375,22.4928223 C6.56523437,20.0926758 1.48637695,15.6249512 1.48637695,10.5737305 C1.48637695,5.55087891 5.57275391,1.46450195 10.5956543,1.46450195 C15.6185059,1.46450195 19.7048828,5.55087891 19.7048828,10.5737305 C19.7049316,15.6249512 14.626123,20.0926758 11.8976074,22.4928711 Z" id="Shape"></path>
                    <path d="M10.595752,5.51455078 C8.02636719,5.51455078 5.93603516,7.60483398 5.93603516,10.1742188 C5.93603516,12.7436035 8.02636719,14.8338867 10.595752,14.8338867 C13.1651367,14.8338867 15.2554199,12.7436035 15.2554199,10.1742188 C15.2554199,7.60483398 13.1651367,5.51455078 10.595752,5.51455078 Z M10.595752,13.3693848 C8.83388672,13.3693848 7.40048828,11.9359863 7.40048828,10.1741699 C7.40048828,8.41235352 8.83388672,6.97895508 10.595752,6.97895508 C12.3576172,6.97895508 13.7909668,8.41235352 13.7909668,10.1741699 C13.7909668,11.9359863 12.3576172,13.3693848 10.595752,13.3693848 Z" id="Shape"></path>
                </g>
            </g>
        </g>
    </g>
</svg>