<?xml version="1.0" encoding="UTF-8"?>
<svg width="25px" height="25px" viewBox="0 0 25 25" version="1.1" xmlns="http://www.w3.org/2000/svg" xmlns:xlink="http://www.w3.org/1999/xlink">
    <!-- Generator: sketchtool 51.2 (57519) - http://www.bohemiancoding.com/sketch -->
    <title>67613C08-BCEE-4751-82CD-D6186544BA17</title>
    <desc>Created with sketchtool.</desc>
    <defs></defs>
    <g id="Symbols" stroke="none" stroke-width="1" fill="none" fill-rule="evenodd">
        <g id="tab-home" transform="translate(-325.000000, -9.000000)" fill="#000000" fill-rule="nonzero">
            <g id="tab">
                <g id="community" transform="translate(325.000000, 9.000000)">
                    <path d="M22.3575463,24.9954918 L2.59972222,24.9954918 C1.1662963,24.9954918 0,23.5211944 0,21.7077869 L0,3.29672131 C0,1.48401639 1.1662963,0.00901639344 2.59972222,0.00901639344 L22.3575463,0.00901639344 C23.7914352,0.00901639344 24.9572685,1.48395785 24.9572685,3.29672131 L24.9572685,21.7078454 C24.9572685,23.5211944 23.7914352,24.9954918 22.3575463,24.9954918 Z M1.03990741,7.89947307 L1.03990741,21.7077869 C1.03990741,22.7955504 1.73958333,23.6803864 2.59972222,23.6803864 L22.3575463,23.6803864 C23.2176852,23.6803864 23.9173611,22.7955504 23.9173611,21.7077869 L23.9173611,7.89947307 L1.03990741,7.89947307 Z M1.03990741,6.58442623 L23.9174074,6.58442623 L23.9174074,3.29672131 C23.9174074,2.20895785 23.2177315,1.32412178 22.3575926,1.32412178 L2.59972222,1.32412178 C1.73958333,1.32412178 1.03990741,2.20895785 1.03990741,3.29672131 L1.03990741,6.58442623 Z" id="Shape"></path>
                    <path d="M4.11962963,4.63911007 C3.56838753,4.63911007 3.11962963,4.19039669 3.11962963,3.63911007 C3.11962963,3.08782345 3.56834301,2.63911007 4.11962963,2.63911007 C4.67091625,2.63911007 5.11962963,3.08782345 5.11962963,3.63911007 C5.11962963,4.19039669 4.67091625,4.63911007 4.11962963,4.63911007 Z" id="Shape"></path>
                    <path d="M7.23930556,4.63911007 C6.68806346,4.63911007 6.23930556,4.19039669 6.23930556,3.63911007 C6.23930556,3.08782345 6.68801894,2.63911007 7.23930556,2.63911007 C7.79054765,2.63911007 8.23930556,3.08782345 8.23930556,3.63911007 C8.23930556,4.19039669 7.79054765,4.63911007 7.23930556,4.63911007 Z" id="Shape"></path>
                    <path d="M10.3589352,4.63911007 C9.80769309,4.63911007 9.35893519,4.19039669 9.35893519,3.63911007 C9.35893519,3.08782345 9.80764857,2.63911007 10.3589352,2.63911007 C10.9101773,2.63911007 11.3589352,3.08782345 11.3589352,3.63911007 C11.3589352,4.19039669 10.9102218,4.63911007 10.3589352,4.63911007 Z" id="Shape"></path>
                </g>
            </g>
        </g>
    </g>
</svg>