<?xml version="1.0" encoding="UTF-8"?>
<svg width="20px" height="21px" viewBox="0 0 20 21" version="1.1" xmlns="http://www.w3.org/2000/svg" xmlns:xlink="http://www.w3.org/1999/xlink">
    <!-- Generator: sketchtool 51.2 (57519) - http://www.bohemiancoding.com/sketch -->
    <title>A131E2AC-4138-408B-A0CE-BC378212FF0B</title>
    <desc>Created with sketchtool.</desc>
    <defs></defs>
    <g id="Page-1" stroke="none" stroke-width="1" fill="none" fill-rule="evenodd">
        <g id="hos_review" transform="translate(-138.000000, -158.000000)" fill="#9B9B9B" fill-rule="nonzero">
            <g id="edit" transform="translate(138.000000, 158.000000)">
                <path d="M16.4789366,3.21472266 C16.7666641,3.21472266 17,2.9877832 17,2.70785156 L17,1.1085293 C17,0.497314453 16.4890981,0 15.8609801,0 L4.83765102,0 C4.6994794,0 4.56695776,0.0534433594 4.46917931,0.148476563 L0.152633889,4.34745117 C0.0549397674,4.44248438 0,4.5714375 0,4.7058457 L0,19.8914297 C4.21640579e-05,20.5026855 0.511239202,21 1.13961016,21 L15.860938,21 C16.4890559,21 16.9999578,20.5026855 16.9999578,19.8914707 L16.9999578,12.1524785 C17,11.8725879 16.7667063,11.6456074 16.4789366,11.6456074 C16.191209,11.6456074 15.9578731,11.8725469 15.9578731,12.1524785 L15.9578731,19.8914707 C15.9578731,19.9437246 15.914402,19.9862578 15.8610223,19.9862578 L1.13965232,19.9862578 C1.08593531,19.9862578 1.04221118,19.9437246 1.04221118,19.8914707 L1.04221118,5.21279883 L4.21969458,5.21279883 C4.84785472,5.21279883 5.35879877,4.71568945 5.35879877,4.10467969 L5.35879877,1.01374219 L15.8609801,1.01374219 C15.914402,1.01374219 15.957831,1.05627539 15.957831,1.1085293 L15.957831,2.70785156 C15.957831,2.9877832 16.1911669,3.21472266 16.4789366,3.21472266 Z M4.31667192,4.10463867 C4.31667192,4.1566875 4.27315861,4.19901563 4.21969458,4.19901563 L1.77932324,4.19901563 L4.31667192,1.73069531 L4.31667192,4.10463867 Z" id="Shape"></path>
                <path d="M19.4977779,4.06895113 L18.900527,3.48831393 C18.2308634,2.83718875 17.1412635,2.83726863 16.4715177,3.48831393 L11.7306821,8.09790797 L3.50758729,8.09790797 C3.22726011,8.09790797 3,8.31887679 3,8.5914436 C3,8.86401041 3.22726011,9.08497923 3.50758729,9.08497923 L10.7155075,9.08497923 L7.66049576,12.0554184 L3.50758729,12.0554184 C3.22726011,12.0554184 3,12.2763872 3,12.548954 C3,12.8215208 3.22726011,13.0424896 3.50758729,13.0424896 L6.64528012,13.0424896 L6.63710648,13.050437 C6.57516752,13.1106613 6.53039732,13.1853825 6.5069443,13.2674121 L5.72293183,16.0129287 L3.50758729,16.0129287 C3.22726011,16.0129287 3,16.2338976 3,16.5064644 C3,16.7790312 3.22726011,17 3.50758729,17 L6.10885918,17 C6.10890025,17 6.2201275,16.9877794 6.23647479,16.983626 C6.23914457,16.9829471 9.44009071,16.1193197 9.44009071,16.1193197 C9.52445584,16.0965558 9.60134558,16.0529451 9.66324347,15.9927608 L19.497819,6.43055786 C20.1674005,5.77951256 20.1674005,4.72007631 19.4977779,4.06895113 Z M6.83803842,15.7973913 L7.25234761,14.3466569 L8.33011832,15.3945915 L6.83803842,15.7973913 Z M9.30434253,14.9459045 L7.71393249,13.3995222 L15.8320432,5.50614702 L17.4224943,7.05252937 L9.30434253,14.9459045 Z M18.7798939,5.73262708 L18.1403372,6.35447878 L16.5498861,4.80805648 L17.1894428,4.18620478 C17.4633625,3.919908 17.9089287,3.91994794 18.182643,4.18620478 L18.7798939,4.76692186 C19.0537315,5.0331787 19.0537315,5.46641017 18.7798939,5.73262708 Z" id="Shape"></path>
            </g>
        </g>
    </g>
</svg>