<?xml version="1.0" encoding="UTF-8"?>
<svg width="25px" height="23px" viewBox="0 0 25 23" version="1.1" xmlns="http://www.w3.org/2000/svg" xmlns:xlink="http://www.w3.org/1999/xlink">
    <!-- Generator: sketchtool 51.2 (57519) - http://www.bohemiancoding.com/sketch -->
    <title>9FD5D44D-C96D-4868-824E-FC0E8DF869FE</title>
    <desc>Created with sketchtool.</desc>
    <defs></defs>
    <g id="Symbols" stroke="none" stroke-width="1" fill="none" fill-rule="evenodd">
        <g id="tab-home" transform="translate(-24.000000, -10.000000)" fill="#55B26E" fill-rule="nonzero">
            <g id="tab">
                <g id="home_on" transform="translate(24.000000, 10.000000)">
                    <path d="M24.6405629,9.2182947 L13.2038907,0.271523179 C13.0084437,0.118543046 12.7567881,0.0343543046 12.4951159,0.0343543046 C12.2335265,0.0343543046 11.9818709,0.118625828 11.7865066,0.271440397 L0.349834437,9.2182947 C-0.0985099338,9.56895695 -0.00322847682,9.97392384 0.0367549669,10.0896523 C0.0765728477,10.2053808 0.251076159,10.5831126 0.820281457,10.5831126 L3.09677152,10.5831126 L3.09677152,21.603394 C3.09677152,22.1740066 3.56092715,22.6381623 4.13153974,22.6381623 L9.4875,22.6381623 C10.0580298,22.6381623 10.5222682,22.1740066 10.5222682,21.603394 L10.5222682,16.6714404 L14.4681291,16.6714404 L14.4681291,21.603394 C14.4681291,22.1740066 14.9322848,22.6381623 15.5028974,22.6381623 L20.8588576,22.6381623 C21.4294702,22.6381623 21.8936258,22.1740066 21.8936258,21.603394 L21.8936258,10.5831126 L24.1701159,10.5831126 C24.7393212,10.5831126 24.9137417,10.2053808 24.9536424,10.0896523 C24.993543,9.97392384 25.0889073,9.56895695 24.6405629,9.2182947 Z M21.6866722,9.34139073 C21.1160596,9.34139073 20.651904,9.80554636 20.651904,10.3761589 L20.651904,21.3964404 L15.709851,21.3964404 L15.709851,16.4644868 C15.709851,15.8938742 15.2456954,15.4297185 14.6750828,15.4297185 L10.3153146,15.4297185 C9.74470199,15.4297185 9.28054636,15.8938742 9.28054636,16.4644868 L9.28054636,21.3964404 L4.33849338,21.3964404 L4.33849338,10.3761589 C4.33849338,9.80554636 3.87425497,9.34139073 3.30372517,9.34139073 L2.20769868,9.34139073 L12.4951159,1.29362583 L22.7825331,9.34139073 L21.6866722,9.34139073 Z" id="Shape"></path>
                </g>
            </g>
        </g>
    </g>
</svg>