<?xml version="1.0" encoding="UTF-8"?>
<svg width="33px" height="27px" viewBox="0 0 33 27" version="1.1" xmlns="http://www.w3.org/2000/svg" xmlns:xlink="http://www.w3.org/1999/xlink">
    <!-- Generator: sketchtool 51.2 (57519) - http://www.bohemiancoding.com/sketch -->
    <title>E091F6DA-1F81-441C-A4E8-28F36CA1712A</title>
    <desc>Created with sketchtool.</desc>
    <defs></defs>
    <g id="Symbols" stroke="none" stroke-width="1" fill="none" fill-rule="evenodd">
        <g id="tab-home" transform="translate(-248.000000, -8.000000)" fill="#000000" fill-rule="nonzero" stroke="#000000" stroke-width="0.3">
            <g id="tab">
                <g id="supporter" transform="translate(249.000000, 9.000000)">
                    <path d="M7.96070461,8.46883469 C10.2955285,8.46883469 12.195122,6.56930894 12.195122,4.23441734 C12.195122,1.89952575 10.2955285,0 7.96070461,0 C5.62588076,0 3.72628726,1.89952575 3.72628726,4.23441734 C3.72628726,6.56930894 5.62588076,8.46883469 7.96070461,8.46883469 Z M7.96070461,1.01626016 C9.7351626,1.01626016 11.1788618,2.45995935 11.1788618,4.23441734 C11.1788618,6.00887534 9.7351626,7.45257453 7.96070461,7.45257453 C6.18624661,7.45257453 4.74254743,6.00887534 4.74254743,4.23441734 C4.74254743,2.45995935 6.18624661,1.01626016 7.96070461,1.01626016 Z" id="Shape"></path>
                    <path d="M19.1395664,8.46883469 C21.4743902,8.46883469 23.3739837,6.56930894 23.3739837,4.23441734 C23.3739837,1.89952575 21.4743902,0 19.1395664,0 C16.8047425,0 14.9051491,1.89952575 14.9051491,4.23441734 C14.9051491,6.56930894 16.8047425,8.46883469 19.1395664,8.46883469 Z M19.1395664,1.01626016 C20.9140244,1.01626016 22.3577236,2.45995935 22.3577236,4.23441734 C22.3577236,6.00887534 20.9140244,7.45257453 19.1395664,7.45257453 C17.3651084,7.45257453 15.9214092,6.00887534 15.9214092,4.23441734 C15.9214092,2.45995935 17.3651084,1.01626016 19.1395664,1.01626016 Z" id="Shape"></path>
                    <path d="M24.6379404,14.151897 C24.7380759,14.2814363 24.8884146,14.3493902 25.0403794,14.3493225 C25.1488482,14.3493225 25.2581978,14.3147019 25.3507453,14.2432927 C25.572832,14.0716802 25.6136856,13.7525745 25.4421409,13.5304878 C23.921206,11.5623306 21.6239837,10.4336043 19.1395664,10.4336043 C17.5443767,10.4336043 16.0051491,10.903794 14.6883469,11.7934282 C14.4557588,11.950542 14.3946477,12.2663957 14.5516938,12.498916 C14.7088753,12.7315718 15.024729,12.7926829 15.2571816,12.6355691 C16.4054201,11.8598916 17.7478997,11.4498645 19.1395664,11.4498645 C21.3068428,11.4498645 23.3109756,12.4346883 24.6379404,14.151897 Z" id="Shape"></path>
                    <path d="M7.96070461,10.4336043 C3.57113821,10.4336043 0,14.0047425 0,18.3943089 C0,18.675 0.227506775,18.902439 0.508130081,18.902439 C0.788753388,18.902439 1.01626016,18.675 1.01626016,18.3943089 C1.01626016,14.5651084 4.13150407,11.4498645 7.96070461,11.4498645 C11.7899051,11.4498645 14.9051491,14.5651084 14.9051491,18.3943089 C14.9051491,18.675 15.1326558,18.902439 15.4132791,18.902439 C15.6939024,18.902439 15.9214092,18.675 15.9214092,18.3943089 C15.9214092,14.0047425 12.350271,10.4336043 7.96070461,10.4336043 Z" id="Shape"></path>
                    <path d="M26.5921409,15.1761518 C23.8836721,15.1761518 21.6802168,17.379607 21.6802168,20.0880759 C21.6802168,22.7965447 23.8836721,25 26.5921409,25 C29.3006098,25 31.504065,22.7965447 31.504065,20.0880759 C31.504065,17.379607 29.3006098,15.1761518 26.5921409,15.1761518 Z M26.5921409,23.9837398 C24.4440379,23.9837398 22.696477,22.2361789 22.696477,20.0880759 C22.696477,17.9399729 24.4440379,16.1924119 26.5921409,16.1924119 C28.7402439,16.1924119 30.4878049,17.9399729 30.4878049,20.0880759 C30.4878049,22.2361789 28.7402439,23.9837398 26.5921409,23.9837398 Z" id="Shape"></path>
                    <path d="M28.2859079,19.5799458 L27.100271,19.5799458 L27.100271,18.3943089 C27.100271,18.1136179 26.8727642,17.8861789 26.5921409,17.8861789 C26.3115176,17.8861789 26.0840108,18.1136179 26.0840108,18.3943089 L26.0840108,19.5799458 L24.898374,19.5799458 C24.6177507,19.5799458 24.3902439,19.8073848 24.3902439,20.0880759 C24.3902439,20.3687669 24.6177507,20.596206 24.898374,20.596206 L26.0840108,20.596206 L26.0840108,21.7818428 C26.0840108,22.0625339 26.3115176,22.2899729 26.5921409,22.2899729 C26.8727642,22.2899729 27.100271,22.0625339 27.100271,21.7818428 L27.100271,20.596206 L28.2859079,20.596206 C28.5665312,20.596206 28.7940379,20.3687669 28.7940379,20.0880759 C28.7940379,19.8073848 28.5665312,19.5799458 28.2859079,19.5799458 Z" id="Shape"></path>
                </g>
            </g>
        </g>
    </g>
</svg>