<svg xmlns="http://www.w3.org/2000/svg" width="20" height="25" viewBox="0 0 20 25">
    <path fill="#9B9B9B" fill-rule="nonzero" d="M19.345 20.13h-.372a8.836 8.836 0 0 1-1.814-5.36v-4.28c0-3.378-2.238-6.224-5.272-7.074.198-.338.315-.734.315-1.16 0-1.241-.984-2.256-2.2-2.256-1.215 0-2.2 1.015-2.2 2.256 0 .426.118.822.316 1.16-3.034.85-5.272 3.696-5.272 7.074v4.28a8.825 8.825 0 0 1-1.814 5.36H.664a.672.672 0 0 0-.664.68c0 .377.297.682.664.682h5.758c.315 1.734 1.8 3.053 3.576 3.053 1.78 0 3.265-1.319 3.575-3.053H19.335A.672.672 0 0 0 20 20.81a.661.661 0 0 0-.655-.68zM10.002 1.362c.48 0 .872.4.872.893a.884.884 0 0 1-.872.894.884.884 0 0 1-.871-.894c0-.492.39-.893.871-.893zm0 21.82c-1.046 0-1.927-.715-2.214-1.691h4.429c-.288.976-1.169 1.69-2.215 1.69zm-7.335-3.054a10.253 10.253 0 0 0 1.512-5.358V10.49c0-3.295 2.615-5.977 5.828-5.977s5.828 2.682 5.828 5.977v4.28c0 1.904.528 3.765 1.508 5.36H2.667z"/>
</svg>
