<svg xmlns="http://www.w3.org/2000/svg" width="16" height="16" viewBox="0 0 16 16">
    <g fill="#FFF" fill-rule="nonzero" stroke="#FFF" stroke-width=".3">
        <path d="M13.52 14.997H2.456c-.803 0-1.456-.825-1.456-1.84V2.846c0-1.016.653-1.842 1.456-1.842H13.52c.803 0 1.456.826 1.456 1.841v10.31c0 1.016-.653 1.841-1.456 1.841zM1.582 5.424v7.732c0 .61.392 1.105.874 1.105H13.52c.482 0 .874-.495.874-1.105V5.424H1.582zm0-.737h12.812v-1.84c0-.61-.392-1.105-.874-1.105H2.456c-.482 0-.874.495-.874 1.104v1.841z"/>
        <path d="M3.307 3.598a.56.56 0 1 1 .001-1.122.56.56 0 0 1-.001 1.122zM5.054 3.598a.56.56 0 1 1 .001-1.122.56.56 0 0 1-.001 1.122zM6.801 3.598a.56.56 0 1 1 .001-1.122.56.56 0 0 1-.001 1.122z"/>
    </g>
</svg>
