<svg xmlns="http://www.w3.org/2000/svg" width="270" height="151" viewBox="0 0 270 151">
    <path fill="#FFF9F1" fill-rule="evenodd" d="M142.5 136l-7.5 15-7.5-15H43.586c-15.156 0-20.652-1.578-26.192-4.541-5.541-2.963-9.89-7.312-12.853-12.853C1.578 113.066 0 107.57 0 92.414V43.586C0 28.43 1.578 22.934 4.541 17.394c2.963-5.541 7.312-9.89 12.853-12.853C22.934 1.578 28.43 0 43.586 0h182.828c15.156 0 20.652 1.578 26.192 4.541 5.541 2.963 9.89 7.312 12.853 12.853C268.422 22.934 270 28.43 270 43.586v48.828c0 15.156-1.578 20.652-4.541 26.192-2.963 5.541-7.312 9.89-12.853 12.853-5.54 2.963-11.036 4.541-26.192 4.541H142.5z"/>
</svg>
