<svg xmlns="http://www.w3.org/2000/svg" width="20" height="20" viewBox="0 0 20 20">
    <g fill="#FFF" fill-rule="nonzero">
        <path d="M18.54.159H1.46C.73.159.16.598.16 1.159c0 .56.571 1 1.301 1h17.111c.73 0 1.302-.44 1.302-1-.032-.561-.603-1-1.333-1zM18.54 17.27H1.46c-.73 0-1.301.439-1.301 1 0 .56.571 1 1.301 1h17.111c.73 0 1.302-.44 1.302-1-.032-.561-.603-1-1.333-1zM18.54 8.698H1.46c-.73 0-1.301.44-1.301 1 0 .561.571 1 1.301 1h17.111c.73 0 1.302-.439 1.302-1-.032-.56-.603-1-1.333-1z"/>
    </g>
</svg>
