<svg xmlns="http://www.w3.org/2000/svg" width="14" height="14" viewBox="0 0 14 14">
    <g fill="#FFF" fill-rule="nonzero">
        <path d="M9.62.896C9.312.58 8.657 0 8 0c-.653 0-1.29.573-1.594.891-2.163.606-3.882 2.575-4.301 4.903A4.424 4.424 0 0 0 0 9.57 4.431 4.431 0 0 0 4.422 14a4.406 4.406 0 0 0 3.15-1.331c.146.017.295.033.428.033 3.309 0 6-2.698 6-6.014A5.997 5.997 0 0 0 9.62.896zM7.66 9.857a3.279 3.279 0 0 1-.294 1.097v.002l-.035.065a3.248 3.248 0 0 1-2.91 1.812A3.263 3.263 0 0 1 1.168 9.57a3.26 3.26 0 0 1 1.738-2.89 3.234 3.234 0 0 1 1.517-.374A3.262 3.262 0 0 1 7.66 9.857zm.73 1.663l.012-.03c.065-.137.125-.276.176-.419.01-.026.016-.054.025-.081.04-.118.075-.237.105-.357a4.512 4.512 0 0 0 .088-.467c.006-.046.014-.092.018-.138.016-.152.027-.304.027-.458 0-2.443-1.982-4.43-4.419-4.43-.174 0-.346.01-.517.03-.055.006-.11.019-.164.027-.1.016-.2.028-.297.05.544-1.605 1.847-2.887 3.414-3.269a.582.582 0 0 0 .302-.184c.268-.308.692-.624.84-.627.153.002.587.32.875.64.079.087.18.148.294.177a4.832 4.832 0 0 1 3.664 4.704A4.848 4.848 0 0 1 8.39 11.52z"/>
        <path d="M4.201 7.467A2.337 2.337 0 0 0 1.867 9.8 2.337 2.337 0 0 0 4.2 12.133 2.335 2.335 0 0 0 6.533 9.8a2.335 2.335 0 0 0-2.332-2.333zm0 3.576a1.243 1.243 0 0 1 0-2.486c.683 0 1.239.557 1.239 1.243s-.556 1.243-1.239 1.243zM12.13 5.862c-.128-1.205-.882-2.35-1.968-2.988-.271-.16-.612-.052-.76.24a.628.628 0 0 0 .223.819c.771.453 1.304 1.244 1.391 2.066.033.308.275.534.556.534a.509.509 0 0 0 .064-.004c.308-.037.529-.336.494-.667z"/>
    </g>
</svg>
