<svg xmlns="http://www.w3.org/2000/svg" width="14" height="14" viewBox="0 0 14 14">
    <g fill="#FFF" fill-rule="nonzero">
        <path d="M13.275 5.527l-.982-.167a5.545 5.545 0 0 0-.394-.952l.578-.81a.862.862 0 0 0-.093-1.114l-.871-.87a.858.858 0 0 0-1.11-.094l-.813.579a5.487 5.487 0 0 0-.988-.407l-.164-.97A.863.863 0 0 0 7.585 0h-1.23A.863.863 0 0 0 5.5.722l-.17.994a5.409 5.409 0 0 0-.95.4l-.804-.579a.858.858 0 0 0-.502-.16c-.231 0-.45.09-.611.254l-.874.87a.865.865 0 0 0-.094 1.114l.585.822c-.16.307-.29.625-.389.956l-.97.163A.863.863 0 0 0 0 6.41v1.23c0 .424.304.783.722.854l.994.17c.102.326.236.645.4.949l-.576.8a.862.862 0 0 0 .094 1.114l.87.871a.858.858 0 0 0 1.111.094l.822-.585c.295.155.605.28.923.38l.164.982c.07.418.43.722.853.722h1.234a.863.863 0 0 0 .853-.722l.167-.982c.33-.102.649-.234.953-.394l.81.578a.858.858 0 0 0 1.114-.094l.87-.87a.865.865 0 0 0 .093-1.114l-.578-.812c.16-.307.295-.626.394-.953l.982-.164a.863.863 0 0 0 .722-.853V6.38a.853.853 0 0 0-.716-.854zm-.067 2.084c0 .038-.026.07-.064.076l-1.228.204a.392.392 0 0 0-.316.29c-.11.43-.28.842-.508 1.224a.395.395 0 0 0 .017.43l.722 1.017a.08.08 0 0 1-.008.1l-.871.87a.074.074 0 0 1-.056.024.072.072 0 0 1-.044-.015l-1.014-.722a.395.395 0 0 0-.43-.017 4.679 4.679 0 0 1-1.224.508.388.388 0 0 0-.29.316l-.207 1.228a.076.076 0 0 1-.076.064H6.38a.076.076 0 0 1-.077-.064L6.1 11.916a.392.392 0 0 0-.29-.316 4.858 4.858 0 0 1-1.198-.49.405.405 0 0 0-.199-.053.385.385 0 0 0-.228.073l-1.023.728a.087.087 0 0 1-.043.014.078.078 0 0 1-.056-.023l-.87-.871a.08.08 0 0 1-.01-.1l.72-1.008a.4.4 0 0 0 .017-.432 4.635 4.635 0 0 1-.515-1.222.4.4 0 0 0-.315-.29l-1.237-.21A.076.076 0 0 1 .79 7.64V6.41c0-.038.026-.07.064-.076l1.22-.205a.395.395 0 0 0 .318-.292c.108-.43.275-.845.5-1.228a.39.39 0 0 0-.02-.427L2.141 3.16a.08.08 0 0 1 .01-.1l.87-.87c.02-.021.041-.024.056-.024.017 0 .032.006.044.014l1.008.72a.4.4 0 0 0 .432.017c.38-.228.792-.403 1.222-.514a.4.4 0 0 0 .29-.316L6.283.85A.076.076 0 0 1 6.36.786h1.23c.038 0 .07.027.076.065l.205 1.218c.026.155.14.28.292.319.442.111.862.283 1.254.514a.395.395 0 0 0 .43-.017l1.008-.725a.087.087 0 0 1 .044-.015c.012 0 .035.003.055.024l.871.87a.08.08 0 0 1 .01.1l-.723 1.014a.395.395 0 0 0-.017.43c.228.383.397.795.508 1.225a.388.388 0 0 0 .316.289l1.228.207a.076.076 0 0 1 .064.076v1.23h-.003z"/>
        <path d="M6.997 3.975a3.021 3.021 0 0 0-3.02 3.02 3.021 3.021 0 0 0 3.02 3.018 3.021 3.021 0 0 0 3.02-3.019 3.021 3.021 0 0 0-3.02-3.019zm0 5.25c-1.23 0-2.23-1-2.23-2.23 0-1.231 1-2.23 2.23-2.23s2.23.999 2.23 2.23c0 1.23-1 2.23-2.23 2.23z"/>
    </g>
</svg>
